<mxfile host="Electron" agent="Mozilla/5.0 (Windows NT 10.0; Win64; x64) AppleWebKit/537.36 (KHTML, like Gecko) draw.io/25.0.2 Chrome/128.0.6613.186 Electron/32.2.5 Safari/537.36" version="25.0.2">
  <diagram name="Page-1" id="bT8aykGGjejoZZVfWieE">
    <mxGraphModel dx="401" dy="904" grid="1" gridSize="10" guides="1" tooltips="1" connect="1" arrows="1" fold="1" page="1" pageScale="1" pageWidth="3300" pageHeight="4681" math="0" shadow="0">
      <root>
        <mxCell id="0" />
        <mxCell id="1" parent="0" />
        <mxCell id="H8nlevA2S83nUw9HrKC--1" value="" style="ellipse;html=1;shape=startState;fillColor=#000000;strokeColor=#ff0000;" vertex="1" parent="1">
          <mxGeometry x="215" y="240" width="30" height="30" as="geometry" />
        </mxCell>
        <mxCell id="H8nlevA2S83nUw9HrKC--2" value="" style="edgeStyle=orthogonalEdgeStyle;html=1;verticalAlign=bottom;endArrow=open;endSize=8;strokeColor=#ff0000;rounded=0;" edge="1" source="H8nlevA2S83nUw9HrKC--1" parent="1">
          <mxGeometry relative="1" as="geometry">
            <mxPoint x="230" y="350" as="targetPoint" />
          </mxGeometry>
        </mxCell>
        <mxCell id="H8nlevA2S83nUw9HrKC--13" style="edgeStyle=orthogonalEdgeStyle;rounded=0;orthogonalLoop=1;jettySize=auto;html=1;entryX=0.5;entryY=0;entryDx=0;entryDy=0;" edge="1" parent="1" source="H8nlevA2S83nUw9HrKC--3" target="H8nlevA2S83nUw9HrKC--12">
          <mxGeometry relative="1" as="geometry" />
        </mxCell>
        <mxCell id="H8nlevA2S83nUw9HrKC--3" value="Do nothing" style="rounded=1;whiteSpace=wrap;html=1;" vertex="1" parent="1">
          <mxGeometry x="285" y="720" width="120" height="60" as="geometry" />
        </mxCell>
        <mxCell id="H8nlevA2S83nUw9HrKC--10" style="edgeStyle=orthogonalEdgeStyle;rounded=0;orthogonalLoop=1;jettySize=auto;html=1;entryX=0.5;entryY=0;entryDx=0;entryDy=0;" edge="1" parent="1" source="H8nlevA2S83nUw9HrKC--4" target="H8nlevA2S83nUw9HrKC--9">
          <mxGeometry relative="1" as="geometry" />
        </mxCell>
        <mxCell id="H8nlevA2S83nUw9HrKC--15" value="No" style="edgeLabel;html=1;align=center;verticalAlign=middle;resizable=0;points=[];" vertex="1" connectable="0" parent="H8nlevA2S83nUw9HrKC--10">
          <mxGeometry x="0.3714" y="-1" relative="1" as="geometry">
            <mxPoint as="offset" />
          </mxGeometry>
        </mxCell>
        <mxCell id="H8nlevA2S83nUw9HrKC--11" style="edgeStyle=orthogonalEdgeStyle;rounded=0;orthogonalLoop=1;jettySize=auto;html=1;entryX=0.5;entryY=0;entryDx=0;entryDy=0;" edge="1" parent="1" source="H8nlevA2S83nUw9HrKC--4" target="H8nlevA2S83nUw9HrKC--3">
          <mxGeometry relative="1" as="geometry" />
        </mxCell>
        <mxCell id="H8nlevA2S83nUw9HrKC--16" value="Yes" style="edgeLabel;html=1;align=center;verticalAlign=middle;resizable=0;points=[];" vertex="1" connectable="0" parent="H8nlevA2S83nUw9HrKC--11">
          <mxGeometry x="0.2959" y="-1" relative="1" as="geometry">
            <mxPoint as="offset" />
          </mxGeometry>
        </mxCell>
        <mxCell id="H8nlevA2S83nUw9HrKC--4" value="Success?" style="rhombus;whiteSpace=wrap;html=1;" vertex="1" parent="1">
          <mxGeometry x="190" y="600" width="80" height="80" as="geometry" />
        </mxCell>
        <mxCell id="H8nlevA2S83nUw9HrKC--7" style="edgeStyle=orthogonalEdgeStyle;rounded=0;orthogonalLoop=1;jettySize=auto;html=1;entryX=0.5;entryY=0;entryDx=0;entryDy=0;" edge="1" parent="1" source="H8nlevA2S83nUw9HrKC--5" target="H8nlevA2S83nUw9HrKC--6">
          <mxGeometry relative="1" as="geometry" />
        </mxCell>
        <mxCell id="H8nlevA2S83nUw9HrKC--5" value="Send Request containting Name, Score and Level" style="rounded=1;whiteSpace=wrap;html=1;" vertex="1" parent="1">
          <mxGeometry x="170" y="350" width="120" height="60" as="geometry" />
        </mxCell>
        <mxCell id="H8nlevA2S83nUw9HrKC--8" style="edgeStyle=orthogonalEdgeStyle;rounded=0;orthogonalLoop=1;jettySize=auto;html=1;entryX=0.5;entryY=0;entryDx=0;entryDy=0;" edge="1" parent="1" source="H8nlevA2S83nUw9HrKC--6" target="H8nlevA2S83nUw9HrKC--4">
          <mxGeometry relative="1" as="geometry" />
        </mxCell>
        <mxCell id="H8nlevA2S83nUw9HrKC--6" value="Get response" style="rounded=1;whiteSpace=wrap;html=1;" vertex="1" parent="1">
          <mxGeometry x="170" y="470" width="120" height="60" as="geometry" />
        </mxCell>
        <mxCell id="H8nlevA2S83nUw9HrKC--14" style="edgeStyle=orthogonalEdgeStyle;rounded=0;orthogonalLoop=1;jettySize=auto;html=1;" edge="1" parent="1" source="H8nlevA2S83nUw9HrKC--9">
          <mxGeometry relative="1" as="geometry">
            <mxPoint x="225" y="850" as="targetPoint" />
          </mxGeometry>
        </mxCell>
        <mxCell id="H8nlevA2S83nUw9HrKC--9" value="Display error" style="rounded=1;whiteSpace=wrap;html=1;" vertex="1" parent="1">
          <mxGeometry x="50" y="720" width="120" height="60" as="geometry" />
        </mxCell>
        <mxCell id="H8nlevA2S83nUw9HrKC--12" value="" style="ellipse;html=1;shape=endState;fillColor=#000000;strokeColor=#ff0000;" vertex="1" parent="1">
          <mxGeometry x="215" y="850" width="30" height="30" as="geometry" />
        </mxCell>
      </root>
    </mxGraphModel>
  </diagram>
</mxfile>
